<svg id="Layer_1" data-name="Layer 1" xmlns="http://www.w3.org/2000/svg" viewBox="0 0 289.79 189.31"><defs><style>.cls-1{fill:#1d1d1d;}</style></defs><path class="cls-1" d="M103.34,89a44.9,44.9,0,1,1,63.51-63.5"/><path class="cls-1" d="M122.93,82.35a44.91,44.91,0,1,0,63.53-63.49"/><path class="cls-1" d="M46.43,139a3.86,3.86,0,0,0-3.1,1.36,5.47,5.47,0,0,0-1.11,3.68v17.36L30.51,143.7,29.41,142a9.45,9.45,0,0,0-1.18-1.51,4.67,4.67,0,0,0-1.48-1,4.84,4.84,0,0,0-2.05-.4,5.12,5.12,0,0,0-2.8.83A4.86,4.86,0,0,0,20,142.08a8.48,8.48,0,0,0-.45,3V172a5.45,5.45,0,0,0,1.15,3.67A4,4,0,0,0,23.87,177,4,4,0,0,0,27,175.66,5.3,5.3,0,0,0,28.18,172V155l11.39,17.46c.38.56.77,1.11,1.15,1.65a9.42,9.42,0,0,0,1.38,1.55,5.51,5.51,0,0,0,1.75,1.06,6.12,6.12,0,0,0,2,.33c1.8,0,4.8-.72,4.8-5.58V144.06a5.46,5.46,0,0,0-1.12-3.69A4,4,0,0,0,46.43,139Z"/><path class="cls-1" d="M79.46,164.59c1.29-.66,1.94-2,1.94-4.06a12.05,12.05,0,0,0-1.47-5.65,11.58,11.58,0,0,0-4.45-4.53,13.6,13.6,0,0,0-7-1.74,15.72,15.72,0,0,0-5.68,1,11.85,11.85,0,0,0-4.4,2.95,12.62,12.62,0,0,0-2.71,4.57,17.31,17.31,0,0,0-.91,5.66c0,4.32,1.26,7.8,3.75,10.36s6,3.86,10.43,3.86a16,16,0,0,0,5.15-.76,13.09,13.09,0,0,0,3.79-1.95,9.23,9.23,0,0,0,2.32-2.54A5.1,5.1,0,0,0,81,169.2a2.94,2.94,0,0,0-1-2.3,3.32,3.32,0,0,0-2.28-.8,3.12,3.12,0,0,0-2.11.7c-.79.75-1.44,1.35-1.94,1.78a13.31,13.31,0,0,1-1.55,1.16,5.82,5.82,0,0,1-1.59.73,6.63,6.63,0,0,1-1.85.24,4.93,4.93,0,0,1-4.58-2.85,7.18,7.18,0,0,1-.72-2.43H75.05A9.64,9.64,0,0,0,79.46,164.59Zm-11.22-9.46a4.37,4.37,0,0,1,3.37,1.33,6.14,6.14,0,0,1,1.4,3.28H63.53A6.46,6.46,0,0,1,65,156.48,4.2,4.2,0,0,1,68.24,155.13Z"/><path class="cls-1" d="M99.89,162.16l4.76-6.41A12,12,0,0,0,105.8,154a4.12,4.12,0,0,0,.45-1.87,3.24,3.24,0,0,0-1.19-2.51,4.12,4.12,0,0,0-2.78-1,3.82,3.82,0,0,0-2.5.84,12.1,12.1,0,0,0-2,2.24l-3.27,4.61-3.38-4.62a12.52,12.52,0,0,0-1.91-2.19,3.74,3.74,0,0,0-2.54-.88,4,4,0,0,0-2.78,1,3.27,3.27,0,0,0-1.14,2.48,6.06,6.06,0,0,0,1.55,3.61l4.77,6.42L83.68,170a6.65,6.65,0,0,0-1.51,3.5,3.35,3.35,0,0,0,1.2,2.52,4.05,4.05,0,0,0,2.77,1,3.76,3.76,0,0,0,2.49-.85,13.29,13.29,0,0,0,1.94-2.26l4-5.71,3.88,5.7v0a11.84,11.84,0,0,0,2,2.23,3.8,3.8,0,0,0,2.52.87,4.1,4.1,0,0,0,2.77-1,3.22,3.22,0,0,0,1.2-2.51,6.84,6.84,0,0,0-1.55-3.55Z"/><path class="cls-1" d="M133.81,167c0-1.29,0-2.48,0-3.54s0-2.35,0-3.87a15,15,0,0,0-1.1-6.22,7.28,7.28,0,0,0-4-3.7,18.85,18.85,0,0,0-7.1-1.08,18,18,0,0,0-6.77,1.12,9.68,9.68,0,0,0-4.2,3,6.53,6.53,0,0,0-1.41,3.93,3.3,3.3,0,0,0,1.14,2.54,3.73,3.73,0,0,0,2.55.95,2.93,2.93,0,0,0,2.35-.79c.27-.33.71-1,1.33-1.92a5,5,0,0,1,1.78-1.73,6.77,6.77,0,0,1,3.23-.56c1.53,0,2.59.28,3,.8a5,5,0,0,1,.76,2.41c-1.05.3-2,.56-3,.78-1.13.27-2.53.57-4.16.9s-2.67.55-3.08.65a9.45,9.45,0,0,0-5.16,2.82,7.56,7.56,0,0,0-1.94,5.21,7.87,7.87,0,0,0,1.17,4.17,8.17,8.17,0,0,0,3.3,3,10.37,10.37,0,0,0,4.84,1.1,13.69,13.69,0,0,0,5.31-1,19.54,19.54,0,0,0,3.9-2.22,12.69,12.69,0,0,0,1.63,2A3.84,3.84,0,0,0,131,177a4.15,4.15,0,0,0,2.78-1.06,3.38,3.38,0,0,0,1.29-2.58,11.14,11.14,0,0,0-.65-2.84A11.84,11.84,0,0,1,133.81,167Zm-8.32-2.67a8.18,8.18,0,0,1-.74,3.9,4.69,4.69,0,0,1-2,1.78,6.67,6.67,0,0,1-3.09.73,3.09,3.09,0,0,1-2.23-.77,2.25,2.25,0,0,1-.8-1.77,1.73,1.73,0,0,1,.59-1.45,4.16,4.16,0,0,1,1.61-.86c.68-.18,1.93-.47,3.71-.85C123.71,164.82,124.68,164.58,125.49,164.35Z"/><path class="cls-1" d="M168.87,144.54a5.62,5.62,0,0,0,.17-1.36,4,4,0,0,0-.57-2,4.43,4.43,0,0,0-1.57-1.56,4.36,4.36,0,0,0-2.18-.58,4,4,0,0,0-2.58.8,4.46,4.46,0,0,0-1.31,1.69c-.22.52-.54,1.39-1,2.65l-7,20.68L146,144.33a15.94,15.94,0,0,0-1.65-3.77A3.83,3.83,0,0,0,141,139a4.23,4.23,0,0,0-3.16,1.3,4.09,4.09,0,0,0-1.26,2.91,6.45,6.45,0,0,0,.18,1.38,11.26,11.26,0,0,0,.42,1.42c.15.38.29.78.44,1.2l8.28,22.53c.3.88.61,1.72.91,2.5a11,11,0,0,0,1.16,2.27,5.53,5.53,0,0,0,1.93,1.79,5.79,5.79,0,0,0,2.9.69,5.68,5.68,0,0,0,2.91-.7,5.74,5.74,0,0,0,1.92-1.77,11.74,11.74,0,0,0,1.14-2.27c.31-.79.61-1.63.91-2.49L168.06,147c.14-.41.28-.8.42-1.18A9.73,9.73,0,0,0,168.87,144.54Z"/><path class="cls-1" d="M193,164.59c1.29-.66,2-2,2-4.06a12,12,0,0,0-1.48-5.65,11.55,11.55,0,0,0-4.44-4.53,13.63,13.63,0,0,0-7-1.74,15.72,15.72,0,0,0-5.68,1,11.89,11.89,0,0,0-4.41,2.95,12.74,12.74,0,0,0-2.7,4.57,17.05,17.05,0,0,0-.91,5.66c0,4.32,1.26,7.8,3.75,10.36s6,3.86,10.43,3.86a16,16,0,0,0,5.15-.76,13,13,0,0,0,3.78-1.95,9.27,9.27,0,0,0,2.33-2.54,5.1,5.1,0,0,0,.83-2.56,2.94,2.94,0,0,0-1-2.3,3.34,3.34,0,0,0-2.28-.8,3.12,3.12,0,0,0-2.11.7c-.8.75-1.45,1.35-1.94,1.78a13.31,13.31,0,0,1-1.55,1.16,5.82,5.82,0,0,1-1.59.73,6.63,6.63,0,0,1-1.85.24,4.93,4.93,0,0,1-4.58-2.85,7.18,7.18,0,0,1-.72-2.43h11.61A9.62,9.62,0,0,0,193,164.59Zm-11.21-9.46a4.35,4.35,0,0,1,3.36,1.33,6.14,6.14,0,0,1,1.4,3.28H177a6.46,6.46,0,0,1,1.47-3.26A4.17,4.17,0,0,1,181.74,155.13Z"/><path class="cls-1" d="M236.89,161.07a22.14,22.14,0,0,0-5.16-1.85c-1.66-.4-3-.75-3.94-1a6.43,6.43,0,0,1-2-.91,1,1,0,0,1-.46-.88c0-.26.08-.62.7-1a4.37,4.37,0,0,1,2.38-.59,4.54,4.54,0,0,1,2.21.44,4.82,4.82,0,0,1,1.44,1.27,12.13,12.13,0,0,0,1.76,1.87,3.63,3.63,0,0,0,2.33.79,3.93,3.93,0,0,0,2.82-1,3.4,3.4,0,0,0,1.06-2.55,4.74,4.74,0,0,0-.87-2.64,7.83,7.83,0,0,0-2.33-2.24,12.31,12.31,0,0,0-3.64-1.53,19,19,0,0,0-4.78-.55,14.13,14.13,0,0,0-5.89,1.12,8.92,8.92,0,0,0-3.84,3.12,7.51,7.51,0,0,0-.65,1.17,3.82,3.82,0,0,0,.06-.68,4,4,0,0,0-2.45-3.6,9.48,9.48,0,0,0-4.44-1.13,6,6,0,0,0-3.91,1.25,9,9,0,0,0-1.18,1.2,4.58,4.58,0,0,0-.52-1,3.59,3.59,0,0,0-3.15-1.44c-1.55,0-4.16.69-4.16,5.37v18a5.2,5.2,0,0,0,1.16,3.61,3.92,3.92,0,0,0,3,1.33,4.08,4.08,0,0,0,3.08-1.3,5.11,5.11,0,0,0,1.2-3.64v-5.41c0-1.91.06-3.55.18-4.86a14.91,14.91,0,0,1,.64-3.27,3.84,3.84,0,0,1,1.09-1.77c.77-.64,2-.7,3.79-.13a7.21,7.21,0,0,0,2,.49,3.5,3.5,0,0,0,2.46-1.05,3.87,3.87,0,0,0,.66-.86,7.38,7.38,0,0,0-.28,1.93,6.53,6.53,0,0,0,1.5,4.32,10,10,0,0,0,3.72,2.69,37.88,37.88,0,0,0,5.62,1.8,15.11,15.11,0,0,1,4,1.37A1.68,1.68,0,0,1,233,169c0,.14,0,.59-.81,1.16a4.59,4.59,0,0,1-2.62.68,6.27,6.27,0,0,1-3.26-.7,6.14,6.14,0,0,1-2-2.22,6.65,6.65,0,0,0-1.24-1.66,3.26,3.26,0,0,0-2.25-.76,3.6,3.6,0,0,0-2.63,1.06,3.44,3.44,0,0,0-1,2.53,6.36,6.36,0,0,0,1.38,3.82,9.73,9.73,0,0,0,4.09,3,16.09,16.09,0,0,0,6.38,1.15,18.33,18.33,0,0,0,6.57-1,8.55,8.55,0,0,0,5.81-8.43,6.35,6.35,0,0,0-1.18-3.75A9.21,9.21,0,0,0,236.89,161.07Z"/><path class="cls-1" d="M266.61,166.1a3.13,3.13,0,0,0-2.12.7c-.79.75-1.44,1.35-1.94,1.78a13.31,13.31,0,0,1-1.55,1.16,5.82,5.82,0,0,1-1.59.73,6.63,6.63,0,0,1-1.85.24,5.07,5.07,0,0,1-2.66-.71,5.16,5.16,0,0,1-1.92-2.14,7,7,0,0,1-.71-2.43h11.61a9.62,9.62,0,0,0,4.4-.84c1.29-.66,1.94-2,1.94-4.06a12.05,12.05,0,0,0-1.47-5.65,11.58,11.58,0,0,0-4.45-4.53,13.59,13.59,0,0,0-7-1.74,15.74,15.74,0,0,0-5.69,1,11.85,11.85,0,0,0-4.4,2.95,12.91,12.91,0,0,0-2.71,4.57,17.31,17.31,0,0,0-.91,5.66c0,4.32,1.26,7.8,3.75,10.36s6,3.86,10.43,3.86a16,16,0,0,0,5.15-.76,13.09,13.09,0,0,0,3.79-1.95,9.23,9.23,0,0,0,2.32-2.54,5.1,5.1,0,0,0,.83-2.56,2.94,2.94,0,0,0-1-2.3A3.29,3.29,0,0,0,266.61,166.1Zm-9.55-11a4.37,4.37,0,0,1,3.37,1.33,6.14,6.14,0,0,1,1.4,3.28h-9.47a6.45,6.45,0,0,1,1.46-3.26A4.2,4.2,0,0,1,257.06,155.13Z"/></svg>